HIERARCHY
ROOT Hips
{
	OFFSET 0.000000 0.000000 0.000000
	CHANNELS 6 Xposition Yposition Zposition Zrotation Yrotation Xrotation 
	JOINT LHipJoint
	{
		OFFSET 0.000000 0.000000 0.000000
		CHANNELS 3 Zrotation Yrotation Xrotation
		JOINT LeftUpLeg
		{
			OFFSET 1.363060 -1.794630 0.839290
			CHANNELS 3 Zrotation Yrotation Xrotation
			JOINT LeftLeg
			{
				OFFSET 2.448110 -6.726130 0.000000
				CHANNELS 3 Zrotation Yrotation Xrotation
				JOINT LeftFoot
				{
					OFFSET 2.562200 -7.039590 0.000000
					CHANNELS 3 Zrotation Yrotation Xrotation
					JOINT LeftToeBase
					{
						OFFSET 0.157640 -0.433110 2.322550
						CHANNELS 3 Zrotation Yrotation Xrotation
						End Site
						{
							OFFSET 0.000000 0.000000 0.000000
						}
					}
				}
			}
		}
	}
	JOINT RHipJoint
	{
		OFFSET 0.000000 0.000000 0.000000
		CHANNELS 3 Zrotation Yrotation Xrotation
		JOINT RightUpLeg
		{
			OFFSET -1.305520 -1.794630 0.839290
			CHANNELS 3 Zrotation Yrotation Xrotation
			JOINT RightLeg
			{
				OFFSET -2.542530 -6.985550 0.000000
				CHANNELS 3 Zrotation Yrotation Xrotation
				JOINT RightFoot
				{
					OFFSET -2.568260 -7.056230 0.000000
					CHANNELS 3 Zrotation Yrotation Xrotation
					JOINT RightToeBase
					{
						OFFSET -0.164730 -0.452590 2.363150
						CHANNELS 3 Zrotation Yrotation Xrotation
						End Site
						{
							OFFSET 0.000000 0.000000 0.000000
						}
					}
				}
			}
		}
	}
}
MOTION
Frames: 22
Frame Time: 0.008333
0.140188 16.384982 -2.427656 -96.043246 85.021388 -75.151151 -10.572200 0.511656 1.312475 -21.808056 -3.852310 -31.270557 -2.214458 0.322726 33.195288 3.301463 10.042949 -27.659076 175.791600 0.000000 -1.138900 9.666974 -0.869074 0.110177 -5.080857 -0.736355 -32.275586 -0.453034 -3.830395 60.775528 -2.906250 -14.646963 -11.819572 -179.319600 0.000000 -105.259000
0.363501 16.496105 -2.526384 -98.015466 84.549362 -77.058532 -10.805458 0.516764 1.363372 -21.068143 -3.644707 -29.255127 -2.153964 0.107603 30.615189 3.062368 9.685272 -25.729965 176.314600 0.000000 -0.044700 9.396312 -0.811111 0.290947 -4.167399 -0.010046 -33.449220 -0.331667 -3.711346 59.275885 -2.912890 -14.461139 -11.587851 -179.414000 0.000000 -104.906000
0.586733 16.610024 -2.625402 -100.991844 84.058318 -79.971662 -11.037650 0.554208 1.455393 -20.306450 -3.532298 -27.331014 -2.069799 -0.068095 28.185029 2.809110 9.326437 -23.574708 -3.132900 -0.000000 -1.316700 9.128683 -0.764798 0.474243 -3.215421 0.619983 -34.502787 -0.185953 -3.573826 57.500049 -2.892227 -14.108324 -11.331014 -179.520200 0.000000 -104.107000
0.809817 16.725753 -2.724285 -104.789287 83.543153 -83.706244 -11.267086 0.627445 1.577457 -19.541980 -3.483352 -25.524173 -1.969517 -0.199127 25.950474 2.543865 8.944892 -21.216897 -2.559100 -0.000000 -3.096200 8.866886 -0.731213 0.658821 -2.247358 1.141693 -35.428257 -0.014191 -3.418066 55.431531 -2.838995 -13.570673 -11.032443 -179.638999 -0.000000 -103.119000
1.032739 16.842514 -2.822798 -109.210770 82.988709 -88.059509 -11.493216 0.735401 1.713565 -18.783921 -3.461132 -23.849760 -1.859863 -0.284644 23.928990 2.268513 8.517423 -18.670222 -1.974100 -0.000001 -5.427700 8.611955 -0.711518 0.840905 -1.276133 1.556194 -36.218690 0.185446 -3.244074 53.055796 -2.751942 -12.855407 -10.678061 -179.769200 0.000000 -102.076000
1.255648 16.959538 -2.920843 -114.026854 82.371725 -92.793547 -11.715614 0.873053 1.846338 -18.032109 -3.429918 -22.314699 -1.745709 -0.326947 22.118065 1.985988 8.023739 -15.943826 -1.392300 0.000000 -8.401399 8.364432 -0.708640 1.018339 -0.312948 1.882242 -36.866566 0.417381 -3.051549 50.356228 -2.622171 -11.932918 -10.252173 -179.907900 0.000000 -101.251000
1.478829 17.075852 -3.018369 -118.987951 81.670001 -97.652676 -11.933782 1.032828 1.961389 -17.282124 -3.361793 -20.916503 -1.629963 -0.330615 20.500951 1.702035 7.453552 -13.050820 -0.834300 0.000000 -12.023900 8.123797 -0.723962 1.191910 0.637113 2.146785 -37.367909 0.683434 -2.838333 47.324903 -2.454084 -10.846011 -9.744779 179.950800 0.000001 -100.760000
1.702590 17.190228 -3.115332 -123.849334 80.870010 -102.389739 -12.148498 1.205730 2.049798 -16.529059 -3.238821 -19.648658 -1.514230 -0.301658 19.057524 1.425133 6.805347 -10.019740 -0.326001 0.000000 -16.178899 7.887838 -0.759693 1.368682 1.562672 2.389988 -37.720652 0.985940 -2.600398 43.963981 -2.247853 -9.613829 -9.155687 179.815400 -0.000000 -100.656001
1.927361 17.301147 -3.211469 -128.418101 79.975116 -106.811591 -12.360408 1.383511 2.108775 -15.774154 -3.056068 -18.502776 -1.399766 -0.247039 17.770192 1.166022 6.088529 -6.900356 0.105299 -0.000000 -20.616500 7.653600 -0.815135 1.560596 2.444574 2.656628 -37.929549 1.324179 -2.331061 40.291117 -2.008325 -8.276339 -8.494109 179.695600 -0.000001 -100.922000
2.153641 17.406889 -3.306643 -132.572690 79.000323 -110.796839 -12.568261 1.559522 2.140241 -15.027072 -2.820589 -17.471074 -1.287678 -0.174203 16.628680 0.935566 5.321968 -3.760089 0.436800 0.000000 -25.008200 7.419507 -0.885178 1.782561 3.252628 2.990954 -38.010112 1.693642 -2.022119 36.342978 -1.743510 -6.883330 -7.780401 179.600200 0.000000 -101.478000
2.381935 17.505642 -3.400434 -136.276123 77.973089 -114.308243 -12.766395 1.729503 2.148776 -14.307110 -2.549561 -16.546312 -1.179356 -0.090360 15.630877 0.742772 4.535314 -0.671835 0.657000 0.000001 -29.050000 7.187984 -0.959386 2.048349 3.948033 3.426726 -37.990103 2.084359 -1.666038 32.177893 -1.464787 -5.492719 -7.045137 179.535401 -0.000000 -102.256000
2.612821 17.595664 -3.492446 -139.550164 76.923976 -117.365788 -12.946066 1.890856 2.139202 -13.638377 -2.262765 -15.722809 -1.076024 -0.001895 14.783306 0.592892 3.765561 2.298402 0.768800 0.000001 -32.548100 6.965252 -1.024221 2.366957 4.488714 3.983521 -37.908706 2.481521 -1.259535 27.885461 -1.183630 -4.148653 -6.340987 179.505300 0.000001 -102.925001
2.846558 17.675462 -3.582598 -142.449244 75.880906 -120.026085 -13.097091 2.042234 2.116364 -13.049267 -1.983840 -14.989266 -0.978176 0.085918 14.093692 0.487614 3.059554 5.100173 0.791000 0.000000 -35.441699 6.760516 -1.065639 2.735956 4.843892 4.643267 -37.813451 2.864998 -0.806031 23.568244 -0.915055 -2.907289 -5.708646 179.506299 0.000000 -103.571000
3.083274 17.743947 -3.670760 -145.035470 74.871307 -122.357056 -13.212281 2.183469 2.083887 -12.561101 -1.726717 -14.334578 -0.885889 0.169737 13.575094 0.424730 2.460920 7.697267 0.752600 -0.000000 -37.780500 6.582137 -1.073630 3.142727 5.003098 5.367370 -37.752149 3.215282 -0.318476 19.358666 -0.667770 -1.778929 -5.209994 179.535700 -0.000001 -103.868000
3.322710 17.800438 -3.757360 -147.355219 73.916678 -124.419971 -13.289585 2.315788 2.045896 -12.188353 -1.499064 -13.741786 -0.798037 0.248045 13.238692 0.399987 2.009544 10.069545 0.688700 -0.000000 -39.679200 6.435711 -1.045043 3.563241 4.993099 6.082573 -37.764486 3.517525 0.182501 15.384463 -0.448174 -0.765994 -4.880243 179.586500 -0.000000 -103.843000
3.564308 17.844714 -3.842912 -149.434138 73.033906 -126.260263 -13.332880 2.440887 2.005157 -11.930854 -1.295188 -13.196620 -0.712716 0.321162 13.097054 0.407771 1.728733 12.209509 0.631700 -0.000000 -41.276400 6.321616 -0.984040 3.970782 4.871170 6.718006 -37.872404 3.767225 0.672785 11.762644 -0.255303 0.163253 -4.744567 179.653600 -0.000000 -103.393000
3.807328 17.876906 -3.927874 -151.289196 72.234813 -127.917040 -13.348976 2.560765 1.963264 -11.778611 -1.104410 -12.683108 -0.627612 0.390444 13.158392 0.442630 1.627536 14.120874 0.608000 0.000000 -42.698100 6.236994 -0.900157 4.339435 4.721164 7.207942 -38.076479 3.969570 1.130780 8.567722 -0.086062 1.032389 -4.781820 179.729200 -0.000000 -102.641000
4.051005 17.897376 -4.012658 -152.924626 71.522339 -129.412908 -13.346829 2.675929 1.918645 -11.710760 -0.908724 -12.191868 -0.540394 0.457786 13.430180 0.499218 1.693469 15.815072 0.631600 -0.000000 -44.034800 6.175392 -0.805323 4.652861 4.620776 7.530099 -38.354750 4.135120 1.541357 5.834136 0.063607 1.856338 -4.948464 179.805800 -0.000000 -101.663000
4.294562 17.906546 -4.097435 -154.350654 70.892262 -130.773878 -13.333827 2.786339 1.868838 -11.704439 -0.695274 -11.710689 -0.449302 0.524882 13.912101 0.572956 1.902996 17.309458 0.707200 -0.000001 -45.327901 6.131168 -0.711547 4.900800 4.636367 7.683587 -38.670287 4.274926 1.895424 3.554985 0.195616 2.619595 -5.163545 179.875099 -0.000000 -100.714001
4.537442 17.904749 -4.181983 -155.584246 70.333127 -132.025245 -13.315527 2.890718 1.809824 -11.734165 -0.452609 -11.232502 -0.353621 0.593048 14.601780 0.659351 2.219558 18.621885 0.828600 0.000000 -46.573200 6.099003 -0.628971 5.084009 4.790338 7.713937 -38.978189 4.396078 2.188009 1.710386 0.312475 3.309645 -5.357946 179.933800 -0.000000 -99.655100
4.779289 17.892162 -4.265812 -156.660783 69.830995 -133.210285 -13.293705 2.988752 1.740086 -11.781444 -0.182994 -10.741385 -0.253766 0.663037 15.485443 0.754714 2.610439 19.772320 0.986701 0.000000 -47.730800 6.078255 -0.566364 5.202058 5.098225 7.647381 -39.239085 4.501676 2.415015 0.269619 0.411204 3.873439 -5.443559 179.978500 -0.000000 -98.904800
5.019928 17.868685 -4.348621 -157.608343 69.365765 -134.359052 -13.269581 3.079513 1.659081 -11.829455 0.107795 -10.225891 -0.150585 0.735263 16.548277 0.855657 3.043289 20.776689 1.169200 0.000000 -48.741800 6.068114 -0.529896 5.261302 5.537459 7.531159 -39.420598 4.591610 2.572874 -0.783905 0.491357 4.285534 -5.372034 -179.989000 -0.000000 -98.392500
